HIERARCHY
ROOT Root
{
  OFFSET 0.0 0.0 0.0
  CHANNELS 6 Xposition Yposition Zposition Zrotation Yrotation Xrotation
  JOINT Hips
  {
    OFFSET 0.0 100.0 0.0
    CHANNELS 6 Xposition Yposition Zposition Zrotation Yrotation Xrotation
    JOINT Spine1
    {
      OFFSET -0.013727 5.003763 -0.053727
      CHANNELS 3 Zrotation Yrotation Xrotation
      JOINT Spine2
      {
        OFFSET -0.0 7.125301 -0.029825
        CHANNELS 3 Zrotation Yrotation Xrotation
        JOINT Chest
        {
          OFFSET -1e-06 7.550063 -0.815971
          CHANNELS 3 Zrotation Yrotation Xrotation
          JOINT Neck1
          {
            OFFSET -0.181677 26.311295 -0.553348
            CHANNELS 3 Zrotation Yrotation Xrotation
            JOINT Neck2
            {
              OFFSET -3e-06 7.709397 2.302585
              CHANNELS 3 Zrotation Yrotation Xrotation
              JOINT Head
              {
                OFFSET -5e-06 6.128916 1.953709
                CHANNELS 3 Zrotation Yrotation Xrotation
                JOINT HeadEnd
                {
                  OFFSET 0.003598 16.065403 -1.835379
                  CHANNELS 3 Zrotation Yrotation Xrotation
                }
                JOINT Jaw
                {
                  OFFSET 0.002637 0.475592 3.094941
                  CHANNELS 3 Zrotation Yrotation Xrotation
                }
                JOINT LeftEye
                {
                  OFFSET 3.206381 5.380205 7.586883
                  CHANNELS 3 Zrotation Yrotation Xrotation
                }
                JOINT RightEye
                {
                  OFFSET -3.22244 5.361869 7.558234
                  CHANNELS 3 Zrotation Yrotation Xrotation
                }
              }
            }
          }
          JOINT LeftShoulder
          {
            OFFSET 1.621652 23.237164 5.113413
            CHANNELS 3 Zrotation Yrotation Xrotation
            JOINT LeftArm
            {
              OFFSET 14.919846 2e-06 -5.502326
              CHANNELS 3 Zrotation Yrotation Xrotation
              JOINT LeftForeArm
              {
                OFFSET 28.739307 0.0 -0.002588
                CHANNELS 3 Zrotation Yrotation Xrotation
                JOINT LeftHand
                {
                  OFFSET 27.093981 -1e-06 0.002609
                  CHANNELS 3 Zrotation Yrotation Xrotation
                  JOINT LeftHandThumb1
                  {
                    OFFSET 2.276482 -1.392045 3.191413
                    CHANNELS 3 Zrotation Yrotation Xrotation
                    JOINT LeftHandThumb2
                    {
                      OFFSET 4.012836 -1.828127 1.641654
                      CHANNELS 3 Zrotation Yrotation Xrotation
                      JOINT LeftHandThumb3
                      {
                        OFFSET 2.798515 0.0 -3e-06
                        CHANNELS 3 Zrotation Yrotation Xrotation
                        JOINT LeftHandThumbEnd
                        {
                          OFFSET 3.180793 -4e-06 4e-06
                          CHANNELS 3 Zrotation Yrotation Xrotation
                        }
                      }
                    }
                  }
                  JOINT LeftHandIndex1
                  {
                    OFFSET 3.247555 -0.531998 2.296169
                    CHANNELS 3 Zrotation Yrotation Xrotation
                    JOINT LeftHandIndex2
                    {
                      OFFSET 6.364578 0.01206 0.1786
                      CHANNELS 3 Zrotation Yrotation Xrotation
                      JOINT LeftHandIndex3
                      {
                        OFFSET 3.662364 0.0 0.0
                        CHANNELS 3 Zrotation Yrotation Xrotation
                        JOINT LeftHandIndex4
                        {
                          OFFSET 2.329242 4e-06 4e-06
                          CHANNELS 3 Zrotation Yrotation Xrotation
                          JOINT LeftHandIndexEnd
                          {
                            OFFSET 2.759615 -0.180537 -0.113024
                            CHANNELS 3 Zrotation Yrotation Xrotation
                          }
                        }
                      }
                    }
                  }
                  JOINT LeftHandMiddle1
                  {
                    OFFSET 3.163495 0.240981 1.000332
                    CHANNELS 3 Zrotation Yrotation Xrotation
                    JOINT LeftHandMiddle2
                    {
                      OFFSET 6.19078 -0.259278 -1.002548
                      CHANNELS 3 Zrotation Yrotation Xrotation
                      JOINT LeftHandMiddle3
                      {
                        OFFSET 4.35652 -4e-06 -1e-06
                        CHANNELS 3 Zrotation Yrotation Xrotation
                        JOINT LeftHandMiddle4
                        {
                          OFFSET 2.996877 -8e-06 0.0
                          CHANNELS 3 Zrotation Yrotation Xrotation
                          JOINT LeftHandMiddleEnd
                          {
                            OFFSET 2.304287 -0.294569 -0.031741
                            CHANNELS 3 Zrotation Yrotation Xrotation
                          }
                        }
                      }
                    }
                  }
                  JOINT LeftHandRing1
                  {
                    OFFSET 2.882643 -0.053652 -0.322543
                    CHANNELS 3 Zrotation Yrotation Xrotation
                    JOINT LeftHandRing2
                    {
                      OFFSET 5.854541 -0.486202 -1.373841
                      CHANNELS 3 Zrotation Yrotation Xrotation
                      JOINT LeftHandRing3
                      {
                        OFFSET 4.350578 0.0 3e-06
                        CHANNELS 3 Zrotation Yrotation Xrotation
                        JOINT LeftHandRing4
                        {
                          OFFSET 2.651321 7e-06 2e-06
                          CHANNELS 3 Zrotation Yrotation Xrotation
                          JOINT LeftHandRingEnd
                          {
                            OFFSET 1.936105 0.077687 -7.1e-05
                            CHANNELS 3 Zrotation Yrotation Xrotation
                          }
                        }
                      }
                    }
                  }
                  JOINT LeftHandPinky1
                  {
                    OFFSET 2.8655 -0.310005 -1.600378
                    CHANNELS 3 Zrotation Yrotation Xrotation
                    JOINT LeftHandPinky2
                    {
                      OFFSET 5.087849 -1.331141 -1.77123
                      CHANNELS 3 Zrotation Yrotation Xrotation
                      JOINT LeftHandPinky3
                      {
                        OFFSET 3.070974 4e-06 0.0
                        CHANNELS 3 Zrotation Yrotation Xrotation
                        JOINT LeftHandPinky4
                        {
                          OFFSET 1.549672 0.0 1e-06
                          CHANNELS 3 Zrotation Yrotation Xrotation
                          JOINT LeftHandPinkyEnd
                          {
                            OFFSET 1.944893 -0.157802 0.057219
                            CHANNELS 3 Zrotation Yrotation Xrotation
                          }
                        }
                      }
                    }
                  }
                }
              }
            }
          }
          JOINT RightShoulder
          {
            OFFSET -1.380118 23.180309 5.214158
            CHANNELS 3 Zrotation Yrotation Xrotation
            JOINT RightArm
            {
              OFFSET -15.037196 1.2e-05 -5.545604
              CHANNELS 3 Zrotation Yrotation Xrotation
              JOINT RightForeArm
              {
                OFFSET -28.736639 2e-06 -0.002597
                CHANNELS 3 Zrotation Yrotation Xrotation
                JOINT RightHand
                {
                  OFFSET -27.133619 -0.0 0.002613
                  CHANNELS 3 Zrotation Yrotation Xrotation
                  JOINT RightHandThumb1
                  {
                    OFFSET -2.274032 -1.383988 3.163127
                    CHANNELS 3 Zrotation Yrotation Xrotation
                    JOINT RightHandThumb2
                    {
                      OFFSET -4.011429 -1.827466 1.640914
                      CHANNELS 3 Zrotation Yrotation Xrotation
                      JOINT RightHandThumb3
                      {
                        OFFSET -2.794935 -4e-06 -3e-06
                        CHANNELS 3 Zrotation Yrotation Xrotation
                        JOINT RightHandThumbEnd
                        {
                          OFFSET -3.183852 4e-06 1e-06
                          CHANNELS 3 Zrotation Yrotation Xrotation
                        }
                      }
                    }
                  }
                  JOINT RightHandIndex1
                  {
                    OFFSET -3.253266 -0.520057 2.282866
                    CHANNELS 3 Zrotation Yrotation Xrotation
                    JOINT RightHandIndex2
                    {
                      OFFSET -6.341917 0.012471 0.178266
                      CHANNELS 3 Zrotation Yrotation Xrotation
                      JOINT RightHandIndex3
                      {
                        OFFSET -3.654871 -8e-06 -0.0
                        CHANNELS 3 Zrotation Yrotation Xrotation
                        JOINT RightHandIndex4
                        {
                          OFFSET -2.327586 0.0 1e-06
                          CHANNELS 3 Zrotation Yrotation Xrotation
                          JOINT RightHandIndexEnd
                          {
                            OFFSET -2.76179 -0.180656 -0.113078
                            CHANNELS 3 Zrotation Yrotation Xrotation
                          }
                        }
                      }
                    }
                  }
                  JOINT RightHandMiddle1
                  {
                    OFFSET -3.168106 0.246593 1.00103
                    CHANNELS 3 Zrotation Yrotation Xrotation
                    JOINT RightHandMiddle2
                    {
                      OFFSET -6.180828 -0.258836 -1.000895
                      CHANNELS 3 Zrotation Yrotation Xrotation
                      JOINT RightHandMiddle3
                      {
                        OFFSET -4.348901 0.0 -0.0
                        CHANNELS 3 Zrotation Yrotation Xrotation
                        JOINT RightHandMiddle4
                        {
                          OFFSET -3.00024 -4e-06 -2e-06
                          CHANNELS 3 Zrotation Yrotation Xrotation
                          JOINT RightHandMiddleEnd
                          {
                            OFFSET -2.30252 -0.29437 -0.031706
                            CHANNELS 3 Zrotation Yrotation Xrotation
                          }
                        }
                      }
                    }
                  }
                  JOINT RightHandRing1
                  {
                    OFFSET -2.88569 -0.067952 -0.308858
                    CHANNELS 3 Zrotation Yrotation Xrotation
                    JOINT RightHandRing2
                    {
                      OFFSET -5.854198 -0.48613 -1.373731
                      CHANNELS 3 Zrotation Yrotation Xrotation
                      JOINT RightHandRing3
                      {
                        OFFSET -4.33881 -4e-06 -0.0
                        CHANNELS 3 Zrotation Yrotation Xrotation
                        JOINT RightHandRing4
                        {
                          OFFSET -2.654903 -4e-06 4e-06
                          CHANNELS 3 Zrotation Yrotation Xrotation
                          JOINT RightHandRingEnd
                          {
                            OFFSET -1.933568 0.077527 -5.2e-05
                            CHANNELS 3 Zrotation Yrotation Xrotation
                          }
                        }
                      }
                    }
                  }
                  JOINT RightHandPinky1
                  {
                    OFFSET -2.866425 -0.342796 -1.584145
                    CHANNELS 3 Zrotation Yrotation Xrotation
                    JOINT RightHandPinky2
                    {
                      OFFSET -5.091371 -1.332055 -1.772385
                      CHANNELS 3 Zrotation Yrotation Xrotation
                      JOINT RightHandPinky3
                      {
                        OFFSET -3.062664 -4e-06 1e-06
                        CHANNELS 3 Zrotation Yrotation Xrotation
                        JOINT RightHandPinky4
                        {
                          OFFSET -1.546529 4e-06 -2e-06
                          CHANNELS 3 Zrotation Yrotation Xrotation
                          JOINT RightHandPinkyEnd
                          {
                            OFFSET -1.945119 -0.157718 0.057211
                            CHANNELS 3 Zrotation Yrotation Xrotation
                          }
                        }
                      }
                    }
                  }
                }
              }
            }
          }
        }
      }
    }
    JOINT LeftLeg
    {
      OFFSET 10.043214 -8.434526 2.595655
      CHANNELS 3 Zrotation Yrotation Xrotation
      JOINT LeftShin
      {
        OFFSET -1e-06 -43.221752 -0.802913
        CHANNELS 3 Zrotation Yrotation Xrotation
        JOINT LeftFoot
        {
          OFFSET 1e-06 -42.155094 -3.481523
          CHANNELS 3 Zrotation Yrotation Xrotation
          JOINT LeftToeBase
          {
            OFFSET 0.0 -5.059472 13.231529
            CHANNELS 3 Zrotation Yrotation Xrotation
            JOINT LeftToeEnd
            {
              OFFSET -0.009607 -1.647619 6.513017
              CHANNELS 3 Zrotation Yrotation Xrotation
            }
          }
        }
      }
    }
    JOINT RightLeg
    {
      OFFSET -10.047278 -8.29526 2.620317
      CHANNELS 3 Zrotation Yrotation Xrotation
      JOINT RightShin
      {
        OFFSET 1e-06 -43.362206 -0.805556
        CHANNELS 3 Zrotation Yrotation Xrotation
        JOINT RightFoot
        {
          OFFSET 2e-06 -42.117393 -3.478398
          CHANNELS 3 Zrotation Yrotation Xrotation
          JOINT RightToeBase
          {
            OFFSET -0.0 -5.079609 13.284196
            CHANNELS 3 Zrotation Yrotation Xrotation
            JOINT RightToeEnd
            {
              OFFSET 0.009532 -1.634378 6.460591
              CHANNELS 3 Zrotation Yrotation Xrotation
            }
          }
        }
      }
    }
  }
}
MOTION
Frames: 4
Frame Time: 0.03333333333333333
0.0 0.0 0.0 0.0 -0.0 0.0 8.038959 91.921913 1047.108398 3.397947 4.031624 12.997982 -0.406828 -0.551386 13.663889 -0.942897 -0.049274 -0.495966 -3.200703 -3.860881 6.710544 -2.544558 2.773589 -4.815387 -0.608391 1.352484 -3.495862 3.87027 -1.244043 -0.915422 7.7e-05 -2.3e-05 5e-06 -0.103124 0.172852 -0.074807 0.704669 -3.561224 -10.678474 -0.917314 3.917608 -10.698196 43.767937 -29.239832 -16.73196 17.803419 -51.858204 -83.339951 0.078645 -23.708654 0.002903 15.635297 8.571754 -49.323818 -5.88211 9.86129 0.70259 -10.936873 -0.360573 7.15621 -0.0 8.77483 -2e-06 -15.980785 18.648693 6.293314 -1.844033 2.498505 -2.507279 -10.163602 4.678948 4.621112 -20.976027 1e-06 3e-06 -21.22629 2.451702 -3.594002 1e-06 -6e-06 -0.0 -1.362681 2.2408 -0.746324 -21.334919 0.584913 3.008327 -13.821215 1e-06 3e-06 -23.887175 -0.249073 -0.839484 -60.860653 2.535787 -1.818604 -0.294025 1.679688 0.833256 -14.21821 0.093217 1.300583 -34.212055 -0.287556 0.967171 -20.033218 0.964542 1.212843 1e-06 0.0 -0.0 -3.440389 0.788234 0.501656 -15.928189 -3.167308 2.999712 -6.338829 1e-06 1e-06 -18.123447 3.648188 -4.905672 -5e-06 1e-06 -2e-06 -31.512789 36.55645 -14.698706 -7.702817 40.080109 -86.405838 0.145945 25.18115 0.483635 -1.191163 -1.267866 -69.556046 2.243539 -5.255037 -3.180158 14.282889 -0.826592 6.952506 -4e-06 -12.690609 -1e-06 16.100548 -17.893679 2.682672 1.665665 -1.955921 -2.878297 4.727798 -4.170587 4.993925 11.020525 4e-06 1e-06 12.109047 -3.735715 -2.866781 1e-06 1e-06 0.0 1.291985 -1.928549 -1.498088 14.800131 0.56747 3.865611 14.24257 -1.341737 -6.660654 19.631969 0.143927 -0.64824 49.426792 -0.641752 -6.302573 0.353028 -1.511151 -0.03194 20.222794 3.684314 2.316635 18.787271 6e-06 4e-06 10.751629 -0.479866 1.397908 -0.0 1e-06 1e-06 3.273806 0.305948 -0.58011 21.486814 11.830381 2.266139 8.162928 2e-06 1e-06 18.39908 -3.798987 -4.940572 2e-06 -3e-06 -0.0 8.954626 12.087662 -25.331573 -0.20261 -0.318569 38.982685 -14.822298 -3.645918 -22.589363 1.662617 -2.116009 1.041398 0.0 0.0 2e-06 -6.521989 -16.104357 -51.330528 0.219985 0.433893 35.189758 8.220268 6.037778 4.776071 -1.410409 0.826724 3.194803 0.0 0.0 -1e-06 
0.0 0.0 0.0 0.0 -0.0 0.0 8.04719 91.98304 1047.070923 3.399274 4.046357 12.991567 -0.425208 -0.574917 13.629548 -0.936283 -0.058524 -0.496846 -3.213402 -3.864924 6.722192 -2.537135 2.721615 -4.798587 -0.611377 1.41007 -3.501126 3.965628 -1.271838 -0.830191 7.7e-05 -2.2e-05 5e-06 -0.098784 0.166101 -0.075129 0.709764 -3.566704 -10.672544 -0.913494 3.90939 -10.691342 43.924049 -29.162716 -16.76079 17.52253 -51.80574 -83.204254 0.005975 -23.826485 -0.0002 15.683344 8.611079 -49.310444 -5.88211 9.861293 0.702591 -10.93688 -0.360575 7.156213 1e-06 8.774833 -1e-06 -15.946362 18.648413 6.31557 -1.844032 2.498507 -2.507279 -10.163607 4.678949 4.621114 -20.976038 -2e-06 5e-06 -21.226301 2.451702 -3.594002 1e-06 -6e-06 -0.0 -1.362683 2.2408 -0.746324 -21.334929 0.584911 3.008329 -13.82122 -1e-06 4e-06 -23.887184 -0.249075 -0.839482 -60.824734 2.536816 -1.821436 -0.294024 1.679688 0.833256 -14.218219 0.093216 1.300584 -34.212078 -0.287561 0.967174 -20.03323 0.96454 1.212845 0.0 0.0 -0.0 -3.440391 0.788233 0.501657 -15.928196 -3.167311 2.999712 -6.338832 0.0 2e-06 -18.123459 3.648188 -4.905673 -5e-06 1e-06 -2e-06 -31.645666 36.456978 -14.79337 -7.487319 40.072212 -86.323082 0.196856 25.291798 0.505292 -1.221045 -1.236782 -69.613014 2.243542 -5.255039 -3.180159 14.282896 -0.826598 6.952509 -2e-06 -12.690609 3e-06 16.095562 -17.913027 2.67758 1.665666 -1.955922 -2.878299 4.727801 -4.17059 4.993928 11.020529 3e-06 0.0 12.109058 -3.735718 -2.866784 0.0 0.0 0.0 1.291986 -1.92855 -1.49809 14.800136 0.567467 3.865613 14.242579 -1.341738 -6.660661 19.631973 0.143925 -0.648242 49.375706 -0.649552 -6.30909 0.353029 -1.511152 -0.03194 20.222803 3.68431 2.316635 18.787285 5e-06 2e-06 10.751634 -0.479872 1.397908 -0.0 1e-06 1e-06 3.273808 0.305947 -0.580112 21.486824 11.830381 2.266135 8.162933 2e-06 -0.0 18.399092 -3.798987 -4.940576 3e-06 -2e-06 -0.0 8.928581 12.067087 -25.238672 -0.197712 -0.319812 38.725929 -14.779662 -3.619473 -22.523327 1.661835 -2.11013 1.036497 0.0 0.0 2e-06 -6.461828 -16.209211 -51.210312 0.221209 0.4382 34.910419 8.186191 6.059962 4.891313 -1.409147 0.812129 3.207303 -0.0 0.0 -1e-06 
0.0 0.0 0.0 0.0 -0.0 0.0 8.033033 92.060722 1047.007812 3.395855 4.095223 13.00281 -0.434628 -0.610168 13.604694 -0.924987 -0.074232 -0.495273 -3.227295 -3.864001 6.712081 -2.528241 2.65141 -4.821362 -0.611229 1.473829 -3.506611 4.072879 -1.285666 -0.717657 7.7e-05 -2.2e-05 6e-06 -0.092828 0.156909 -0.071826 0.718292 -3.575191 -10.666136 -0.909818 3.899216 -10.682779 44.117157 -29.06974 -16.808458 17.220991 -51.759449 -83.059776 -0.042895 -23.936853 -0.022208 15.730259 8.646658 -49.257858 -5.882107 9.86129 0.702591 -10.936872 -0.360575 7.156209 -2e-06 8.77483 -2e-06 -15.905173 18.636269 6.329834 -1.844032 2.498505 -2.507279 -10.163602 4.678946 4.621111 -20.976027 -2e-06 4e-06 -21.226288 2.451699 -3.594 1e-06 -6e-06 -0.0 -1.362681 2.240799 -0.746324 -21.334917 0.584911 3.008327 -13.821215 -1e-06 3e-06 -23.887175 -0.249076 -0.839481 -60.782551 2.541711 -1.835037 -0.294024 1.679688 0.833256 -14.21821 0.093215 1.300584 -34.212051 -0.287561 0.967175 -20.033216 0.96454 1.212846 1e-06 0.0 -1e-06 -3.440389 0.788233 0.501656 -15.928189 -3.16731 2.999711 -6.338826 1e-06 2e-06 -18.123453 3.648187 -4.905671 -5e-06 0.0 -2e-06 -31.821779 36.341782 -14.928815 -7.222622 40.05526 -86.208992 0.241529 25.392084 0.53519 -1.266978 -1.172986 -69.791222 2.243542 -5.25504 -3.180159 14.2829 -0.826594 6.952511 -3e-06 -12.690616 -0.0 16.106611 -17.946068 2.67 1.665667 -1.955923 -2.878301 4.727802 -4.17059 4.993928 11.020535 3e-06 0.0 12.109059 -3.735717 -2.866786 0.0 0.0 -0.0 1.291985 -1.928551 -1.498091 14.80014 0.56747 3.865613 14.242579 -1.341737 -6.66066 19.631979 0.143927 -0.648241 49.334465 -0.659303 -6.331818 0.353028 -1.511152 -0.031941 20.222803 3.684315 2.316635 18.787287 6e-06 4e-06 10.751636 -0.479868 1.39791 1e-06 1e-06 1e-06 3.273808 0.305948 -0.580112 21.486828 11.830389 2.26614 8.162931 3e-06 2e-06 18.399094 -3.798989 -4.940575 2e-06 -2e-06 -0.0 8.916099 12.056096 -25.181995 -0.196956 -0.325804 38.439388 -14.731719 -3.597377 -22.379343 1.661205 -2.099711 1.034662 0.0 0.0 2e-06 -6.381823 -16.318233 -51.07449 0.227197 0.444636 34.550079 8.111931 6.021753 5.036189 -1.407551 0.804572 3.225955 -0.0 0.0 -1e-06 
0.0 0.0 0.0 0.0 -0.0 0.0 8.006315 92.146561 1046.931152 3.40009 4.161114 13.043759 -0.449121 -0.656959 13.589079 -0.915438 -0.094105 -0.495094 -3.243002 -3.856717 6.687905 -2.501799 2.56252 -4.884186 -0.605898 1.541355 -3.505721 4.175215 -1.296797 -0.580112 7.7e-05 -2.2e-05 4e-06 -0.089035 0.153034 -0.069879 0.724172 -3.58073 -10.666059 -0.907733 3.896538 -10.680777 44.328568 -28.960709 -16.897713 16.865002 -51.752396 -82.886559 -0.058486 -24.058023 -0.049924 15.786601 8.676392 -49.062492 -5.882107 9.861289 0.702589 -10.936872 -0.360575 7.156209 -1e-06 8.774828 -3e-06 -15.859021 18.614162 6.340528 -1.844033 2.498506 -2.507278 -10.163603 4.678946 4.621109 -20.976023 -2e-06 2e-06 -21.226286 2.451699 -3.594002 1e-06 -6e-06 -0.0 -1.362682 2.240799 -0.746324 -21.334915 0.584911 3.008325 -13.821214 -1e-06 3e-06 -23.887171 -0.249077 -0.839483 -60.751083 2.549507 -1.84892 -0.294025 1.679688 0.833256 -14.218209 0.093216 1.300581 -34.212048 -0.287561 0.967171 -20.033215 0.964539 1.212844 1e-06 0.0 -1e-06 -3.440389 0.788234 0.501656 -15.928187 -3.16731 2.999709 -6.338826 0.0 1e-06 -18.123453 3.648185 -4.905672 -5e-06 0.0 -2e-06 -31.987265 36.234421 -15.077839 -6.941843 40.057453 -86.089958 0.244369 25.514053 0.546129 -1.309742 -1.09853 -69.950638 2.243541 -5.255037 -3.180157 14.282887 -0.826592 6.952501 -4e-06 -12.690603 -1e-06 16.126257 -17.994564 2.678533 1.665665 -1.955921 -2.8783 4.727796 -4.170587 4.993924 11.020523 4e-06 -2e-06 12.109048 -3.735713 -2.866785 0.0 1e-06 0.0 1.291985 -1.928549 -1.498089 14.800127 0.567471 3.865608 14.242568 -1.341734 -6.660657 19.631962 0.143929 -0.648242 49.321247 -0.668494 -6.343826 0.353029 -1.511151 -0.03194 20.222786 3.684313 2.31663 18.78727 7e-06 2e-06 10.751625 -0.479866 1.397906 -0.0 1e-06 0.0 3.273807 0.305948 -0.58011 21.486814 11.830379 2.266134 8.162926 3e-06 0.0 18.399076 -3.798983 -4.940573 3e-06 -2e-06 -0.0 8.896688 12.027377 -25.163294 -0.198103 -0.334395 38.131428 -14.702449 -3.540659 -22.197563 1.662776 -2.088973 1.046613 0.0 -0.0 2e-06 -6.297688 -16.428625 -50.954193 0.235353 0.454183 34.149208 8.010498 5.928373 5.34692 -1.405984 0.800564 3.256757 -0.0 0.0 -1e-06 
